<?xml version="1.0" encoding="UTF-8" standalone="no" ?>
<!DOCTYPE svg PUBLIC "-//W3C//DTD SVG 1.1//EN" "http://www.w3.org/Graphics/SVG/1.1/DTD/svg11.dtd">
<svg xmlns="http://www.w3.org/2000/svg" xmlns:xlink="http://www.w3.org/1999/xlink" version="1.1" width="1080" height="1080" viewBox="0 0 1080 1080" xml:space="preserve">
<desc>Created with Fabric.js 5.2.4</desc>
<defs>
</defs>
<rect x="0" y="0" width="100%" height="100%" fill="transparent"></rect>
<g transform="matrix(1 0 0 1 540 540)" id="ace62581-266c-484c-a51b-bee45a1cc793"  >
<rect style="stroke: none; stroke-width: 1; stroke-dasharray: none; stroke-linecap: butt; stroke-dashoffset: 0; stroke-linejoin: miter; stroke-miterlimit: 4; fill: rgb(255,255,255); fill-rule: nonzero; opacity: 1; visibility: hidden;" vector-effect="non-scaling-stroke"  x="-540" y="-540" rx="0" ry="0" width="1080" height="1080" />
</g>
<g transform="matrix(1 0 0 1 540 540)" id="adc5f03a-060d-47df-a83e-9e6ee54c8f4d"  >
</g>
<g transform="matrix(1 0 0 1 540 540)" id="75a58410-33d9-4823-b783-3afa0a680bb7"  >
<path style="stroke: rgb(0,0,0); stroke-width: 0; stroke-dasharray: none; stroke-linecap: butt; stroke-dashoffset: 0; stroke-linejoin: miter; stroke-miterlimit: 4; fill: rgb(255,255,255); fill-rule: nonzero; opacity: 1;" vector-effect="non-scaling-stroke"  transform=" translate(-64.02, -64.01)" d="M 40.53 77.82 L 40.53 50.74 L 42 50.74 L 42 55 C 42.173620575205035 54.811287503364525 42.334002080766496 54.6108106214127 42.48 54.4 C 43.70627259449324 51.854484166187646 46.29468620170511 50.24842030147185 49.11999999999999 50.28 C 52.47 50.18 55.19 51.42 56.79 54.4 C 58.855688017850945 58.156243644152084 58.974934274860885 62.680148519466705 57.11 66.53999999999999 C 55.62 69.88 51.94 71.53999999999999 48 70.92999999999999 C 45.50874104942167 70.71779378345565 43.2949647327509 69.25700260850962 42.12 67.05 L 42.12 77.82 z M 42 60.32 C 42.13 61.64 42.18 62.58 42.33 63.5 C 42.91 67.12 45.05 69.27 48.41 69.66 C 51.66332333094616 70.19477127600025 54.841286333435136 68.356660922782 56 65.27 C 57.30615384850482 62.15547156946096 57.21145936527611 58.62992311694575 55.74 55.58999999999999 C 54.50776517551152 52.83373060607852 51.59933281339728 51.226546383535734 48.60999999999999 51.65 C 45.80970796125661 51.85288793736974 43.445456044572 53.80771082943325 42.72 56.52 C 42.40680200977384 57.771696081752324 42.16639906798964 59.04048938561339 42 60.320000000000014 z M 88.41 64 C 87.94930126925368 67.9435564787658 84.63986893030928 70.93658314189382 80.67 71 C 74.51 71.31 71.62 67.22 71.16 62.5 C 70.84072374947279 59.93678883291633 71.25690878317035 57.33563237230657 72.36 55 C 73.93634720692648 51.71246296947228 77.45942692939579 49.82350977728724 81.07 50.33 C 84.50054367639407 50.62075649472412 87.36032070464036 53.07372017106495 88.16999999999999 56.42 C 88.48298384490835 57.90609609756982 88.71333731309434 59.40840132486976 88.85999999999999 60.91999999999999 L 72.67 60.92 C 72.37 65.2 74.67 68.64 77.93 69.47 C 81.99000000000001 70.47 85.46000000000001 68.71 86.72 64.85 C 87 63.85999999999999 87.51 63.71999999999999 88.41 63.99999999999999 z M 72.67 59.55 L 87.14 59.55 C 87.05 54.989999999999995 84.21 51.69 80.36 51.64 C 76 51.57 72.86 54.75 72.67 59.55 z M 91.39 64.1 L 92.81 64.1 C 92.91694058456463 66.23024175313925 94.20627044573315 68.12177358539246 96.15 69 C 98.57523230914529 70.09139166657924 101.36569529880582 70.01776467476762 103.73 68.8 C 105.03274182079257 68.212703529595 105.83111874509754 66.87542218138417 105.73 65.45 C 105.80515707984078 64.07089815040482 104.9559911736813 62.80939687635056 103.65 62.36 C 102.09 61.78 100.43 61.46 98.84 60.95 C 97.18564135358159 60.478881628824226 95.56798604697374 59.8873010724821 94 59.18 C 91.44 57.93 91.28 53.06 94.18 51.519999999999996 C 97.19718346055677 49.81736323348422 100.87191874235201 49.76088676911237 103.94000000000001 51.37 C 105.81296967370939 52.40512391796542 106.84864001571839 54.4923979918605 106.54 56.61 L 105.32000000000001 56.61 C 105.32000000000001 56.55 105.21000000000001 56.5 105.21000000000001 56.44 C 105.06 52.55 101.80000000000001 51.349999999999994 98.30000000000001 51.69 C 97.25517834048173 51.818880552382176 96.24035123120686 52.12671144219555 95.30000000000001 52.599999999999994 C 94.14218736767532 53.12948435596314 93.44467329400375 54.332094827810685 93.56000000000002 55.599999999999994 C 93.5635643657122 56.8682549185592 94.36427130264157 57.99725169962963 95.56000000000002 58.419999999999995 C 97.10000000000002 58.98 98.71000000000002 59.339999999999996 100.29000000000002 59.779999999999994 C 101.56000000000002 60.129999999999995 102.88000000000002 60.35999999999999 104.11000000000001 60.779999999999994 C 105.88731013918182 61.362609507645885 107.12058021123516 62.98177376353528 107.21000000000001 64.85 C 107.5143894189059 66.90066282547889 106.47063210951109 68.9156383262411 104.62 69.85 C 101.28 71.74 95.78 71.24 93.33000000000001 68.85 C 92.07585102453163 67.5886770302669 91.37744824175434 65.87867021676578 91.39000000000001 64.1 z M 125.21 56.61 L 123.88 56.61 C 123.88 56.43 123.81 56.269999999999996 123.78999999999999 56.12 C 123.74553727544394 54.0653846950871 122.26924495901305 52.32219207286079 120.24999999999999 51.94 C 118.40131135005905 51.409582988507815 116.42920587613284 51.504497155702126 114.63999999999999 52.21 C 113.1875588165288 52.62646276295614 112.18236830869364 53.94908185221294 112.16999999999999 55.46 C 112.11874501993405 56.9494040442497 113.1214770102793 58.26966783153761 114.57 58.620000000000005 C 116.57 59.24 118.61999999999999 59.620000000000005 120.64999999999999 60.18000000000001 C 121.3078301106579 60.33789044113514 121.9556488701027 60.5349074865333 122.58999999999999 60.77000000000001 C 124.52864310673182 61.463602763642974 125.84387974296554 63.27469780615187 125.90356744301296 65.3328181300093 C 125.96325514306038 67.39093845386674 124.75518816547715 69.2752120114917 122.85999999999999 70.08000000000001 C 120.00646534236085 71.37575817491158 116.73887658001358 71.40843406253506 113.85999999999999 70.17000000000002 C 111.46208987361554 69.13578199266898 109.96180738050153 66.71777350642672 110.09999999999998 64.11000000000001 L 111.39999999999998 64.11000000000001 C 111.88824114872254 66.46558497330476 113.50715553040575 68.4286453195104 115.72669074096763 69.35645102915068 C 117.94622595152951 70.28425673879096 120.48058960900299 70.05734144679137 122.49999999999997 68.75000000000001 C 123.73735101595007 68.10716107984523 124.487189553564 66.802754457121 124.41999999999997 65.41000000000001 C 124.4819064509764 64.03008374753212 123.62045726141369 62.77669559020627 122.30999999999997 62.34000000000001 C 120.74999999999997 61.76000000000001 119.08999999999997 61.45000000000001 117.49999999999997 60.94000000000001 C 115.83617931411365 60.47615649650895 114.20850551138467 59.891263446246995 112.62999999999997 59.19000000000001 C 110.12999999999997 57.960000000000015 109.92999999999996 53.13000000000001 112.77999999999997 51.59000000000001 C 115.83797984164144 49.814086007916224 119.60339173398549 49.77233244862612 122.69999999999997 51.48000000000001 C 124.47888238856456 52.54192752590916 125.46324641112582 54.55379503018776 125.20999999999998 56.610000000000014 z M 38.1 70.51 C 37.01643254850444 70.92030240716937 35.79713057569524 70.45662419215742 35.260000000000005 69.43 C 33.63 66.99000000000001 31.830000000000005 64.66000000000001 30.100000000000005 62.28000000000001 L 29.350000000000005 61.28000000000001 C 27.290000000000006 64.04 25.230000000000004 66.69000000000001 23.350000000000005 69.44000000000001 C 22.843342075875558 70.42062066022673 21.688476761726108 70.87401222800392 20.650000000000006 70.50000000000001 L 28.380000000000006 60.13000000000002 L 21.190000000000005 50.76000000000002 C 22.256934428746487 50.374753062491536 23.447691649772718 50.79256261372881 24.040000000000006 51.76000000000002 C 25.710000000000008 54.20000000000002 27.560000000000006 56.530000000000015 29.400000000000006 59.00000000000002 C 31.250000000000007 56.55000000000002 33.080000000000005 54.21000000000002 34.790000000000006 51.79000000000002 C 35.299840619280495 50.824543501187165 36.452341919451925 50.39450570261573 37.470000000000006 50.79000000000002 L 34.68000000000001 54.49000000000002 C 33.43000000000001 56.14000000000002 32.20000000000001 57.800000000000026 30.900000000000006 59.410000000000025 C 30.68813964849402 59.5996973314874 30.56706446465091 59.87062368925374 30.56706446465091 60.15500000000003 C 30.56706446465091 60.43937631074631 30.68813964849402 60.710302668512654 30.900000000000006 60.90000000000003 C 33.290000000000006 64.07000000000002 35.660000000000004 67.25000000000003 38.10000000000001 70.51000000000002 z M 70.92 50.66 L 70.92 52.059999999999995 C 68.87469349186108 51.925849158093335 66.86817545580445 52.66372690017795 65.39706934568542 54.091004719451455 C 63.9259632355664 55.51828253872496 63.12775309234452 57.50157242135488 63.2 59.55 L 63.2 70.55 L 61.77 70.55 L 61.77 50.74 L 63.17 50.74 L 63.17 54.800000000000004 C 64.9 51.84 67.57000000000001 50.74 70.92 50.660000000000004 z M 2.13 60 C 2.34 59 2.4699999999999998 57.91 2.76 56.89 C 4.49 50.74 11.54 48.18 16.39 51.99 C 19.23 54.22 19.94 57.38 19.8 60.94 L 3.8000000000000007 60.94 C 3.540000000000001 67.3 8.13 71.14 14 69.17999999999999 C 15.934401097780272 68.48806178308106 17.389555708212253 66.8674632376129 17.87 64.86999999999999 C 18.18 63.86999999999999 18.68 63.69999999999999 19.630000000000003 63.98999999999999 C 19.312955694357967 66.45651963692625 17.883152419884265 68.64176020848012 15.750000000000004 69.91999999999999 C 12.181496159929997 71.87141302880136 7.76274851323752 71.30645899178131 4.800000000000004 68.51999999999998 C 3.37115703200182 66.91344827681874 2.507204865083792 64.88351188462923 2.3400000000000034 62.73999999999998 C 2.3400000000000043 62.39999999999998 2.2100000000000044 62.05999999999998 2.140000000000004 61.73999999999998 Q 2.1300000000000043 60.84999999999998 2.1300000000000043 59.99999999999998 z M 3.82 59.57 L 18.29 59.57 C 18.2 54.96 15.29 51.69 11.41 51.66 C 7.09 51.599999999999994 4 54.8 3.8100000000000005 59.55 z" stroke-linecap="round" />
</g>
</svg>